<svg width="706" height="100" viewBox="0 0 706 100" fill="none" xmlns="http://www.w3.org/2000/svg">
<path d="M4.12346 35.1189H22.661V99.0485H4.12346V35.1189Z" fill="#01295C"/>
<path d="M75.1574 34.1675C83.079 34.1675 89.4562 36.5441 94.2887 41.2973C99.2 46.0504 101.656 53.1013 101.656 62.4489V99.0481H83.1189V65.301C83.1189 60.231 82.0097 56.4678 79.7917 54.0119C77.5734 51.4771 74.365 50.2098 70.1662 50.2098C65.4924 50.2098 61.7691 51.6752 58.9964 54.6062C56.2241 57.4582 54.8375 61.7359 54.8375 67.4396V99.0481H36.3004V35.1182H54.0057V42.6044C56.4616 39.9109 59.5113 37.8512 63.1557 36.4253C66.7997 34.9201 70.8004 34.1675 75.1574 34.1675Z" fill="#01295C"/>
<path d="M180.709 10.8782V99.049H163.003V91.6818C158.408 97.2273 151.754 99.9995 143.04 99.9995C137.019 99.9995 131.553 98.6528 126.642 95.9594C121.809 93.266 118.007 89.4239 115.234 84.4333C112.461 79.4426 111.075 73.6596 111.075 67.0842C111.075 60.5089 112.461 54.7259 115.234 49.7352C118.007 44.7445 121.809 40.9022 126.642 38.2088C131.553 35.5153 137.019 34.1686 143.04 34.1686C151.199 34.1686 157.577 36.7432 162.172 41.8924V10.8782H180.709ZM146.248 84.7895C150.922 84.7895 154.804 83.2053 157.894 80.0364C160.983 76.7886 162.528 72.4711 162.528 67.0842C162.528 61.6974 160.983 57.4193 157.894 54.2508C154.804 51.0026 150.922 49.3789 146.248 49.3789C141.495 49.3789 137.574 51.0026 134.485 54.2508C131.395 57.4193 129.85 61.6974 129.85 67.0842C129.85 72.4711 131.395 76.7886 134.485 80.0364C137.574 83.2053 141.495 84.7895 146.248 84.7895Z" fill="#01295C"/>
<path d="M194.301 35.1189H212.838V99.0485H194.301V35.1189Z" fill="#01295C"/>
<path d="M257.372 99.9986C250.559 99.9986 244.42 98.6125 238.954 95.8397C233.567 92.9881 229.329 89.0667 226.239 84.0756C223.229 79.0849 221.724 73.4207 221.724 67.0833C221.724 60.7459 223.229 55.0817 226.239 50.0905C229.329 45.0999 233.567 41.218 238.954 38.4454C244.42 35.5935 250.559 34.1675 257.372 34.1675C264.106 34.1675 269.968 35.5935 274.959 38.4454C280.029 41.218 283.712 45.2186 286.01 50.4473L271.632 58.1713C268.304 52.3089 263.512 49.378 257.253 49.378C252.421 49.378 248.42 50.9622 245.252 54.1311C242.083 57.2996 240.498 61.6171 240.498 67.0833C240.498 72.5495 242.083 76.867 245.252 80.0355C248.42 83.2044 252.421 84.7886 257.253 84.7886C263.591 84.7886 268.384 81.8577 271.632 75.9953L286.01 83.8381C283.712 88.9081 280.029 92.8689 274.959 95.721C269.968 98.573 264.106 99.9986 257.372 99.9986Z" fill="#FF681E"/>
<path d="M322.726 99.9986C315.994 99.9986 309.933 98.6125 304.546 95.8397C299.238 92.9881 295.079 89.0667 292.069 84.0756C289.058 79.0849 287.553 73.4207 287.553 67.0833C287.553 60.7459 289.058 55.0817 292.069 50.0905C295.079 45.0999 299.238 41.218 304.546 38.4454C309.933 35.5935 315.994 34.1675 322.726 34.1675C329.462 34.1675 335.483 35.5935 340.79 38.4454C346.097 41.218 350.254 45.0999 353.264 50.0905C356.275 55.0817 357.783 60.7459 357.783 67.0833C357.783 73.4207 356.275 79.0849 353.264 84.0756C350.254 89.0667 346.097 92.9881 340.79 95.8397C335.483 98.6125 329.462 99.9986 322.726 99.9986ZM322.726 84.7886C327.481 84.7886 331.364 83.2044 334.37 80.0355C337.459 76.7877 339.004 72.4701 339.004 67.0833C339.004 61.6965 337.459 57.4183 334.37 54.2499C331.364 51.0016 327.481 49.378 322.726 49.378C317.975 49.378 314.052 51.0016 310.962 54.2499C307.873 57.4183 306.328 61.6965 306.328 67.0833C306.328 72.4701 307.873 76.7877 310.962 80.0355C314.052 83.2044 317.975 84.7886 322.726 84.7886Z" fill="#FF681E"/>
<path d="M405.463 34.1675C413.387 34.1675 419.765 36.5441 424.595 41.2973C429.507 46.0504 431.961 53.1013 431.961 62.4489V99.0481H413.424V65.301C413.424 60.231 412.315 56.4678 410.098 54.0119C407.88 51.4771 404.67 50.2098 400.472 50.2098C395.8 50.2098 392.075 51.6752 389.305 54.6062C386.531 57.4582 385.144 61.7359 385.144 67.4396V99.0481H366.607V35.1182H384.314V42.6044C386.768 39.9109 389.82 37.8512 393.462 36.4253C397.108 34.9201 401.107 34.1675 405.463 34.1675Z" fill="#FF681E"/>
<path d="M484.057 34.1675C491.981 34.1675 498.355 36.5441 503.189 41.2973C508.101 46.0504 510.555 53.1013 510.555 62.4489V99.0481H492.018V65.301C492.018 60.231 490.909 56.4678 488.692 54.0119C486.474 51.4771 483.264 50.2098 479.066 50.2098C474.394 50.2098 470.669 51.6752 467.899 54.6062C465.125 57.4582 463.738 61.7359 463.738 67.4396V99.0481H445.201V35.1182H462.908V42.6044C465.362 39.9109 468.414 37.8512 472.056 36.4253C475.702 34.9201 479.701 34.1675 484.057 34.1675Z" fill="#FF681E"/>
<path d="M587.113 67.3208C587.113 67.5588 586.997 69.2224 586.756 72.312H538.394C539.266 76.2728 541.326 79.4018 544.573 81.699C547.821 83.9967 551.861 85.1454 556.695 85.1454C560.021 85.1454 562.953 84.6699 565.486 83.7193C568.102 82.6895 570.519 81.1052 572.737 78.9662L582.599 89.6605C576.578 96.5527 567.782 99.9986 556.217 99.9986C549.008 99.9986 542.634 98.6125 537.086 95.8397C531.542 92.9881 527.265 89.0667 524.254 84.0756C521.244 79.0849 519.736 73.4207 519.736 67.0833C519.736 60.8248 521.202 55.2004 524.134 50.2098C527.144 45.1398 531.227 41.218 536.376 38.4454C541.604 35.5935 547.426 34.1675 553.842 34.1675C560.1 34.1675 565.764 35.5142 570.835 38.2077C575.905 40.9012 579.867 44.783 582.715 49.853C585.647 54.8437 587.113 60.6666 587.113 67.3208ZM553.963 48.1895C549.764 48.1895 546.239 49.378 543.386 51.7546C540.533 54.1311 538.788 57.3789 538.157 61.4984H569.647C569.012 57.4582 567.267 54.2499 564.419 51.8733C561.566 49.4174 558.082 48.1895 553.963 48.1895Z" fill="#FF681E"/>
<path d="M626.786 99.9986C619.971 99.9986 613.834 98.6125 608.369 95.8397C602.979 92.9881 598.743 89.0667 595.654 84.0756C592.643 79.0849 591.135 73.4207 591.135 67.0833C591.135 60.7459 592.643 55.0817 595.654 50.0905C598.743 45.0999 602.979 41.218 608.369 38.4454C613.834 35.5935 619.971 34.1675 626.786 34.1675C633.517 34.1675 639.381 35.5935 644.373 38.4454C649.443 41.218 653.127 45.2186 655.423 50.4473L641.046 58.1713C637.72 52.3089 632.924 49.378 626.665 49.378C621.836 49.378 617.833 50.9622 614.664 54.1311C611.496 57.2996 609.914 61.6171 609.914 67.0833C609.914 72.5495 611.496 76.867 614.664 80.0355C617.833 83.2044 621.836 84.7886 626.665 84.7886C633.002 84.7886 637.799 81.8577 641.046 75.9953L655.423 83.8381C653.127 88.9081 649.443 92.8689 644.373 95.721C639.381 98.573 633.517 99.9986 626.786 99.9986Z" fill="#FF681E"/>
<path d="M704.694 95.9599C702.871 97.3066 700.616 98.3364 697.921 99.0495C695.305 99.6832 692.535 100 689.603 100C682 100 676.094 98.0595 671.896 94.1776C667.777 90.2961 665.717 84.5919 665.717 77.0665V50.805H655.854V36.5455H665.717V20.9789H684.254V36.5455H700.18V50.805H684.254V76.8285C684.254 79.5219 684.927 81.6216 686.277 83.1265C687.701 84.5525 689.682 85.2655 692.215 85.2655C695.147 85.2655 697.643 84.4727 699.702 82.8889L704.694 95.9599Z" fill="#FF681E"/>
<path d="M26.3717 13.1859L13.1859 0L0 13.1859L13.1859 26.3717L26.3717 13.1859Z" fill="#01295C"/>
<path d="M216.862 13.1859L203.676 0L190.49 13.1859L203.676 26.3717L216.862 13.1859Z" fill="#01295C"/>
<path d="M696.255 8.4V0H697.239L701.007 6.348H700.479L704.199 0H705.183L705.195 8.4H704.043L704.031 1.812H704.307L700.995 7.38H700.443L697.107 1.812H697.407V8.4H696.255Z" fill="#01295C"/>
<path d="M690.88 8.4V1.044H688V0H694.948V1.044H692.068V8.4H690.88Z" fill="#01295C"/>
</svg>
