<svg width="255" height="126" viewBox="0 0 255 126" fill="none" xmlns="http://www.w3.org/2000/svg">
<path d="M35.889 40.2461V41.7245H18.9267V83.12H17.3647V41.7245H0.375V40.2461H35.889ZM56.5233 59.3011C59.2362 59.3011 61.401 60.0951 63.0178 61.7104C64.6619 63.3257 65.621 65.4338 65.621 68.0073V83.2021H64.0591V68.1716C64.0591 65.9814 63.237 64.2018 61.9216 62.8329C60.6063 61.464 58.7429 60.67 56.3589 60.6153C54.2215 60.5605 52.1937 61.1355 50.2755 62.1211C48.3573 63.1341 46.7953 64.5303 45.6444 66.3099C44.4661 68.0895 43.8906 70.0607 43.8906 72.1962V83.0926H42.3287L42.3835 40.2735H43.8632L43.8084 66.8848C44.7949 64.6672 46.4391 62.8329 48.7409 61.4093C51.0427 59.9856 53.646 59.2738 56.4959 59.2738L56.5233 59.3011ZM101.82 58.8905C104.533 58.8905 106.698 59.6844 108.315 61.2997C109.959 62.915 110.918 64.9958 110.918 67.5967V83.12H109.356V67.7336C109.356 65.5433 108.534 63.7638 107.218 62.3949C105.903 61.026 104.04 60.232 101.656 60.1772C99.4635 60.1225 97.4357 60.67 95.5449 61.6557C93.6541 62.6413 92.1195 64.0102 90.9412 65.7897C89.7629 67.5419 89.1874 69.5405 89.1874 71.7855V83.12H87.6255V59.4107H88.8038L89.0504 67.2681C89.9821 64.6672 91.6263 62.6139 93.9555 61.1355C96.2847 59.6297 98.9154 58.8905 101.82 58.8905ZM126.318 70.5809L120.427 76.1112V83.12H118.865V40.2735H120.427V74.3043L137.636 58.2882L138.649 59.1369L127.497 69.5679L138.293 83.12H136.512L126.346 70.5809H126.318ZM77.2398 58.9726H75.7875L75.9245 83.1473H77.2398V58.9726Z" fill="#464646" stroke="#464646" stroke-width="0.75" stroke-miterlimit="22.93" stroke-linecap="round"/>
<path d="M35.889 40.2461V41.7245H18.9267V83.12H17.3647V41.7245H0.375V40.2461H35.889ZM56.5233 59.3011C59.2362 59.3011 61.401 60.0951 63.0178 61.7104C64.6619 63.3257 65.621 65.4338 65.621 68.0073V83.2021H64.0591V68.1716C64.0591 65.9814 63.237 64.2018 61.9216 62.8329C60.6063 61.464 58.7429 60.67 56.3589 60.6153C54.2215 60.5605 52.1937 61.1355 50.2755 62.1211C48.3573 63.1341 46.7953 64.5303 45.6444 66.3099C44.4661 68.0895 43.8906 70.0607 43.8906 72.1962V83.0926H42.3287L42.3835 40.2735H43.8632L43.8084 66.8848C44.7949 64.6672 46.4391 62.8329 48.7409 61.4093C51.0427 59.9856 53.646 59.2738 56.4959 59.2738L56.5233 59.3011ZM101.82 58.8905C104.533 58.8905 106.698 59.6844 108.315 61.2997C109.959 62.915 110.918 64.9958 110.918 67.5967V83.12H109.356V67.7336C109.356 65.5433 108.534 63.7638 107.218 62.3949C105.903 61.026 104.04 60.232 101.656 60.1772C99.4635 60.1225 97.4357 60.67 95.5449 61.6557C93.6541 62.6413 92.1195 64.0102 90.9412 65.7897C89.7629 67.5419 89.1874 69.5405 89.1874 71.7855V83.12H87.6255V59.4107H88.8038L89.0504 67.2681C89.9821 64.6672 91.6263 62.6139 93.9555 61.1355C96.2847 59.6297 98.9154 58.8905 101.82 58.8905ZM126.318 70.5809L120.427 76.1112V83.12H118.865V40.2735H120.427V74.3043L137.636 58.2882L138.649 59.1369L127.497 69.5679L138.293 83.12H136.512L126.346 70.5809H126.318ZM77.2398 58.9726H75.7875L75.9245 83.1473H77.2398V58.9726Z" fill="#464646"/>
<path d="M159.063 56.8645C161.283 56.7276 163.283 57.1383 165.092 58.0418C166.9 58.9726 168.325 60.3689 169.394 62.2306C170.463 64.0923 170.983 66.3373 170.983 68.9929C170.983 71.8402 170.408 74.3864 169.229 76.6314C168.051 78.8764 166.434 80.6012 164.324 81.8332C162.214 83.0652 159.83 83.6675 157.172 83.6675C155.364 83.6675 153.692 83.2842 152.103 82.5177C150.513 81.7511 149.143 80.6833 147.965 79.3144L148.568 78.3288C149.554 79.5608 150.815 80.5464 152.377 81.2856C153.939 82.0248 155.528 82.4081 157.172 82.4081C159.638 82.4081 161.803 81.8332 163.721 80.6833C165.612 79.5335 167.119 77.9455 168.161 75.8648C169.229 73.8115 169.75 71.4843 169.75 68.8834C169.75 65.5159 168.764 62.8329 166.791 60.8891C164.818 58.9452 162.187 57.9596 158.871 57.9596C157.775 57.9596 156.652 58.0965 155.555 58.3977C154.459 58.6715 153.528 59.0547 152.788 59.5476L152.541 59.3559L165.996 41.5055H148.677V40.2461H168.325L155.254 57.4394C156.405 57.0562 157.665 56.8371 159.063 56.8371V56.8645Z" fill="#464646" stroke="#464646" stroke-width="0.76" stroke-miterlimit="22.93" stroke-linecap="round"/>
<path d="M159.063 56.8645C161.283 56.7276 163.283 57.1383 165.092 58.0418C166.9 58.9726 168.325 60.3689 169.394 62.2306C170.463 64.0923 170.983 66.3373 170.983 68.9929C170.983 71.8402 170.408 74.3864 169.229 76.6314C168.051 78.8764 166.434 80.6012 164.324 81.8332C162.214 83.0652 159.83 83.6675 157.172 83.6675C155.364 83.6675 153.692 83.2842 152.103 82.5177C150.513 81.7511 149.143 80.6833 147.965 79.3144L148.568 78.3288C149.554 79.5608 150.815 80.5464 152.377 81.2856C153.939 82.0248 155.528 82.4081 157.172 82.4081C159.638 82.4081 161.803 81.8332 163.721 80.6833C165.612 79.5335 167.119 77.9455 168.161 75.8648C169.229 73.8115 169.75 71.4843 169.75 68.8834C169.75 65.5159 168.764 62.8329 166.791 60.8891C164.818 58.9452 162.187 57.9596 158.871 57.9596C157.775 57.9596 156.652 58.0965 155.555 58.3977C154.459 58.6715 153.528 59.0547 152.788 59.5476L152.541 59.3559L165.996 41.5055H148.677V40.2461H168.325L155.254 57.4394C156.405 57.0562 157.665 56.8371 159.063 56.8371V56.8645Z" fill="#464646"/>
<path d="M191.075 57.0008C193.322 57.0008 195.404 57.6031 197.295 58.8077C199.186 60.0123 200.72 61.6276 201.844 63.681C202.967 65.7343 203.543 67.9519 203.543 70.3612C203.543 72.7705 202.967 75.0154 201.844 77.0414C200.72 79.0948 199.186 80.6827 197.24 81.8873C195.295 83.0646 193.185 83.6669 190.883 83.6669C188.581 83.6669 186.471 83.0646 184.525 81.8599C182.58 80.6553 181.045 79.0126 179.922 76.9593C178.798 74.9059 178.223 72.6336 178.223 70.1695C178.223 66.0355 179.209 62.2299 181.182 58.7256C183.155 55.2212 185.484 52.1822 188.142 49.6087C190.828 47.0352 194.281 44.0784 198.501 40.7656L199.295 41.8881C194.582 45.2556 190.718 48.6505 187.649 51.9906C184.608 55.3581 182.47 58.5613 181.292 61.6276C182.47 60.1218 183.922 58.9993 185.621 58.2054C187.32 57.4114 189.129 57.0281 191.047 57.0281L191.075 57.0008ZM190.828 82.4622C192.911 82.4622 194.829 81.9147 196.61 80.847C198.364 79.7792 199.761 78.3008 200.775 76.4391C201.789 74.5774 202.31 72.5514 202.31 70.3612C202.31 68.171 201.789 66.0629 200.775 64.2012C199.761 62.3395 198.364 60.861 196.61 59.7933C194.856 58.7256 192.938 58.178 190.828 58.178C188.718 58.178 186.827 58.6708 185.073 59.6564C183.32 60.642 181.949 62.0109 180.936 63.7631C179.922 65.5153 179.401 67.5413 179.401 69.8136V70.3338C179.401 72.5241 179.922 74.55 180.936 76.3843C181.949 78.2187 183.347 79.6971 185.073 80.7922C186.8 81.8873 188.718 82.4349 190.828 82.4349V82.4622Z" fill="#464646" stroke="#464646" stroke-width="0.76" stroke-miterlimit="22.93" stroke-linecap="round"/>
<path d="M191.075 57.0047C193.322 57.0047 195.404 57.607 197.295 58.8117C199.186 60.0163 200.72 61.6316 201.844 63.6849C202.967 65.7383 203.543 67.9559 203.543 70.3652C203.543 72.7744 202.967 75.0194 201.844 77.0454C200.72 79.0987 199.186 80.6867 197.24 81.8913C195.295 83.0685 193.185 83.6708 190.883 83.6708H190.855V82.4936C192.938 82.4936 194.856 81.946 196.61 80.8783C198.364 79.8106 199.761 78.3321 200.775 76.4704C201.789 74.6087 202.31 72.5828 202.31 70.3925C202.31 68.2023 201.789 66.0942 200.775 64.2325C199.761 62.3708 198.364 60.8924 196.61 59.8247C194.856 58.7569 192.938 58.2094 190.855 58.2094V57.0321H191.075V57.0047ZM190.855 47.0939C193.048 45.1501 195.596 43.042 198.501 40.7148L199.295 41.8373C196.089 44.1371 193.294 46.4368 190.855 48.7092V47.0939ZM190.855 83.6708C188.581 83.6708 186.471 83.0685 184.525 81.8639C182.58 80.6593 181.045 79.0166 179.922 76.9633C178.798 74.9099 178.223 72.6375 178.223 70.1735C178.223 66.0394 179.209 62.2339 181.182 58.7295C183.155 55.2252 185.484 52.1862 188.142 49.6127C188.965 48.8187 189.869 47.9974 190.855 47.1213V48.7366C189.704 49.8043 188.636 50.8994 187.649 51.9672C184.608 55.3347 182.47 58.5379 181.292 61.6042C182.47 60.0984 183.922 58.9759 185.621 58.182C187.266 57.4154 188.992 57.0321 190.828 57.0047V58.182H190.801C188.718 58.182 186.8 58.6748 185.046 59.6604C183.292 60.646 181.922 62.0149 180.908 63.7671C179.894 65.5193 179.374 67.5452 179.374 69.8176V70.3378C179.374 72.528 179.894 74.554 180.908 76.3883C181.922 78.2226 183.32 79.701 185.046 80.7962C186.772 81.8913 188.691 82.4388 190.801 82.4388H190.828V83.6161L190.855 83.6708Z" fill="#464646"/>
<path d="M226.091 83.5309C222.583 83.5309 219.541 82.5179 217.02 80.492C214.499 78.466 212.609 75.7829 211.321 72.4702C210.033 69.1301 209.375 65.5436 209.375 61.6833C209.375 57.823 210.033 54.2365 211.321 50.9511C212.609 47.6658 214.527 45.0101 217.02 43.0115C219.541 41.013 222.556 40.0273 226.091 40.0273C229.626 40.0273 232.64 41.013 235.188 43.0115C237.737 45.0101 239.655 47.6658 240.943 50.9785C242.231 54.2913 242.889 57.8504 242.889 61.6833C242.889 65.5162 242.231 69.1575 240.943 72.4702C239.655 75.8103 237.737 78.4934 235.188 80.492C232.64 82.5179 229.626 83.5309 226.091 83.5309ZM226.091 82.2715C228.995 82.3263 231.626 81.5049 233.983 79.8349C236.339 78.1648 238.203 75.7829 239.573 72.6619C240.943 69.5408 241.628 65.8995 241.628 61.7381C241.628 57.5766 240.943 53.9353 239.573 50.8416C238.203 47.7479 236.339 45.366 233.983 43.696C231.626 42.0259 228.995 41.2046 226.091 41.2594C223.186 41.2046 220.555 42.0259 218.226 43.696C215.897 45.366 214.033 47.7479 212.663 50.8416C211.293 53.9353 210.608 57.5766 210.608 61.7381C210.608 65.8995 211.293 69.5408 212.663 72.6619C214.033 75.7829 215.897 78.1648 218.226 79.8349C220.555 81.5049 223.186 82.3263 226.091 82.2715Z" fill="#464646" stroke="#464646" stroke-width="0.76" stroke-miterlimit="22.93" stroke-linecap="round"/>
<path d="M226.118 40C229.626 40 232.64 41.013 235.188 42.9842C237.737 44.9828 239.655 47.6385 240.943 50.9512C242.231 54.264 242.889 57.8231 242.889 61.656C242.889 65.4889 242.231 69.1302 240.943 72.4429C239.655 75.783 237.737 78.4661 235.188 80.4646C232.667 82.4906 229.626 83.4762 226.118 83.5036V82.2442C229.023 82.2716 231.626 81.4776 233.983 79.8076C236.339 78.1375 238.203 75.7556 239.573 72.6346C240.943 69.5135 241.628 65.8722 241.628 61.7107C241.628 57.5493 240.943 53.908 239.573 50.8143C238.203 47.7206 236.339 45.3387 233.983 43.6687C231.626 41.9986 229.023 41.2047 226.118 41.232V39.9727V40ZM226.091 83.531C222.583 83.531 219.541 82.518 217.02 80.492C214.499 78.4661 212.609 75.783 211.321 72.4703C210.033 69.1302 209.375 65.5437 209.375 61.6834C209.375 57.8231 210.033 54.2366 211.321 50.9512C212.609 47.6659 214.527 45.0102 217.02 43.0116C219.541 41.013 222.556 40.0274 226.091 40.0274H226.118V41.2868H226.091C223.186 41.232 220.555 42.0534 218.226 43.7234C215.897 45.3935 214.033 47.7754 212.663 50.8691C211.293 53.9628 210.608 57.6041 210.608 61.7655C210.608 65.927 211.293 69.5682 212.663 72.6893C214.033 75.8104 215.897 78.1923 218.226 79.8623C220.555 81.5324 223.186 82.3537 226.091 82.299H226.118V83.5584H226.091V83.531Z" fill="#464646"/>
<path d="M248.814 36.7717H243.114L241.333 41.2617H241.004L245.964 28.75H245.991L250.951 41.2617H250.567L248.786 36.7717H248.814ZM248.677 36.4706L245.964 29.5713L243.224 36.4706H248.677ZM254.376 29.2976V41.2617H254.048V29.2976H254.376Z" fill="#464646" stroke="#464646" stroke-width="0.37" stroke-linejoin="round"/>
<path d="M248.814 36.7717H245.964V36.4706H248.704L245.991 29.5713V29.6261V28.7774H246.019L250.979 41.2891H250.595L248.814 36.7991V36.7717ZM254.376 29.2976V41.2617H254.048V29.2976H254.376ZM245.964 36.7717H243.114L241.333 41.2617H241.004L245.964 28.75V29.5987L243.224 36.4432H245.964V36.7444V36.7717Z" fill="#464646"/>
<path fill-rule="evenodd" clip-rule="evenodd" d="M227.954 29.7325C236.175 29.7325 242.834 23.0796 242.834 14.8662C242.834 6.65284 236.175 0 227.954 0C219.733 0 213.074 6.65284 213.074 14.8662C213.074 23.0796 219.733 29.7325 227.954 29.7325ZM227.954 11.8547C229.598 11.8547 230.941 13.1962 230.941 14.8389C230.941 16.4815 229.598 17.823 227.954 17.823C226.31 17.823 224.967 16.4815 224.967 14.8389C224.967 13.1962 226.31 11.8547 227.954 11.8547Z" fill="#E9425A"/>
<path fill-rule="evenodd" clip-rule="evenodd" d="M164.684 0.848682C163.286 0.328501 161.943 0.109478 161.176 0.0273438C160.683 0.520147 160.464 2.51874 160.162 3.25794H158.162C157.586 1.2046 157.559 0.0273438 156.984 0.109478C156.463 0.164234 154.901 0.547525 153.531 1.14984C153.613 2.21758 154.325 3.5591 154.243 4.40782C153.668 4.73635 153.065 5.06489 152.654 5.33867L150.215 3.12105C149.667 3.47697 148.023 5.14702 147.53 5.85885L149.749 8.21335C149.64 8.56926 149.064 9.52749 148.845 9.93816C147.831 9.93816 146.57 9.25371 145.611 9.28109C145.365 9.66438 144.68 12.2653 144.68 12.895L147.858 13.8258V15.8518L144.707 16.7826C144.68 16.9743 144.817 18.9181 145.748 20.6156C145.968 20.5061 148.626 19.7942 148.845 19.7395L149.914 21.4369L147.721 23.9557C150.434 27.3505 154.654 29.6777 159.34 29.6777C167.671 29.6777 174.357 22.9427 174.357 14.8114C174.357 9.99292 172 5.53031 168.356 2.87465C168.328 2.92941 166.41 4.54471 165.972 5.22915C165.287 4.928 164.766 4.54471 164.163 4.2983C164.382 3.03892 164.684 2.13545 164.711 0.848682H164.684ZM159.422 23.2165C154.764 23.2165 151.01 19.4383 151.01 14.8114C151.01 10.1846 154.791 6.40641 159.422 6.40641C164.053 6.40641 167.835 10.1846 167.835 14.8114C167.835 19.4383 164.053 23.2165 159.422 23.2165Z" fill="#E9425A"/>
<path fill-rule="evenodd" clip-rule="evenodd" d="M198.907 0.821339C197.509 0.301158 196.166 0.0821339 195.399 0C194.906 0.492803 194.714 2.49139 194.385 3.2306H192.385C191.809 1.17725 191.782 0 191.206 0.0821339C190.686 0.13689 189.124 0.520181 187.754 1.1225C187.836 2.19024 188.548 3.53176 188.466 4.38047C187.891 4.70901 187.288 5.03754 186.877 5.31132L184.438 3.09371C183.89 3.42224 182.246 5.11968 181.752 5.8315L183.972 8.18601C183.862 8.54192 183.287 9.50015 183.068 9.91082C182.054 9.91082 180.793 9.22637 179.834 9.25375C179.588 9.63704 178.985 12.2379 178.957 12.8676C178.875 13.4973 178.82 14.1544 178.82 14.8115C178.82 18.2337 179.971 21.3822 181.917 23.9009L181.944 23.9557L181.999 24.0378L182.163 24.2295H182.191L182.218 24.3116L182.41 24.558C185.123 27.7065 189.096 29.7051 193.481 29.7051H193.673C201.893 29.7051 208.552 23.0522 208.552 14.8388V14.6198C208.552 13.9354 208.498 13.2509 208.388 12.5939V12.5391L208.361 12.3748V12.3201C207.867 9.50015 206.607 6.92662 204.771 4.90065C204.086 4.13407 203.346 3.44962 202.524 2.84731C202.496 2.90206 200.578 4.51736 200.14 5.20181C199.455 4.90065 198.934 4.51736 198.331 4.27096C198.55 3.01157 198.852 2.1081 198.879 0.821339H198.907ZM193.727 21.1905C190.247 21.1905 187.397 18.3432 187.397 14.8662C187.397 11.3892 190.247 8.54192 193.727 8.54192C197.208 8.54192 200.057 11.3892 200.057 14.8662C200.057 18.3432 197.208 21.1905 193.727 21.1905Z" fill="#E9425A"/>
<path d="M78.3124 47.0938H74.75V52.3503H78.3124V47.0938Z" fill="#E9425A"/>
<path d="M248.272 112.199V113.962H228.887V112.199H248.272Z" fill="#0E529E"/>
<path d="M221.969 109.34L215.311 125.295H212.986L215.192 120.016L210.918 109.34H213.42L216.473 117.613L219.644 109.34H221.969Z" fill="#0E529E"/>
<path d="M204.878 109.156C205.732 109.156 206.494 109.334 207.163 109.688C207.846 110.043 208.378 110.568 208.759 111.264C209.14 111.96 209.33 112.8 209.33 113.785V120.187H207.104V114.12C207.104 113.148 206.861 112.406 206.376 111.894C205.89 111.369 205.226 111.106 204.386 111.106C203.546 111.106 202.876 111.369 202.377 111.894C201.891 112.406 201.648 113.148 201.648 114.12V120.187H199.402V109.334H201.648V110.575C202.016 110.128 202.482 109.78 203.047 109.531C203.624 109.281 204.235 109.156 204.878 109.156Z" fill="#0E529E"/>
<path d="M185.301 114.711C185.301 113.621 185.524 112.656 185.971 111.816C186.43 110.975 187.047 110.325 187.822 109.865C188.61 109.393 189.477 109.156 190.422 109.156C191.276 109.156 192.018 109.327 192.648 109.668C193.292 109.997 193.804 110.41 194.185 110.909V109.334H196.45V120.187H194.185V118.572C193.804 119.084 193.285 119.511 192.629 119.852C191.972 120.194 191.223 120.365 190.383 120.365C189.451 120.365 188.597 120.128 187.822 119.655C187.047 119.17 186.43 118.5 185.971 117.646C185.524 116.779 185.301 115.801 185.301 114.711ZM194.185 114.751C194.185 114.002 194.027 113.352 193.712 112.8C193.41 112.249 193.009 111.829 192.51 111.54C192.011 111.251 191.473 111.106 190.895 111.106C190.317 111.106 189.779 111.251 189.28 111.54C188.781 111.816 188.374 112.229 188.059 112.781C187.756 113.319 187.605 113.963 187.605 114.711C187.605 115.46 187.756 116.116 188.059 116.681C188.374 117.246 188.781 117.679 189.28 117.981C189.792 118.27 190.33 118.414 190.895 118.414C191.473 118.414 192.011 118.27 192.51 117.981C193.009 117.692 193.41 117.272 193.712 116.72C194.027 116.156 194.185 115.499 194.185 114.751Z" fill="#0E529E"/>
<path d="M174.953 110.929C175.333 110.43 175.852 110.01 176.509 109.668C177.165 109.327 177.907 109.156 178.735 109.156C179.68 109.156 180.54 109.393 181.315 109.865C182.103 110.325 182.72 110.975 183.167 111.816C183.613 112.656 183.837 113.621 183.837 114.711C183.837 115.801 183.613 116.779 183.167 117.646C182.72 118.5 182.103 119.17 181.315 119.655C180.54 120.128 179.68 120.365 178.735 120.365C177.907 120.365 177.172 120.2 176.528 119.872C175.885 119.531 175.36 119.11 174.953 118.611V125.348H172.707V109.334H174.953V110.929ZM181.552 114.711C181.552 113.963 181.394 113.319 181.079 112.781C180.777 112.229 180.37 111.816 179.857 111.54C179.358 111.251 178.82 111.106 178.242 111.106C177.678 111.106 177.139 111.251 176.627 111.54C176.128 111.829 175.721 112.249 175.406 112.8C175.104 113.352 174.953 114.002 174.953 114.751C174.953 115.499 175.104 116.156 175.406 116.72C175.721 117.272 176.128 117.692 176.627 117.981C177.139 118.27 177.678 118.414 178.242 118.414C178.82 118.414 179.358 118.27 179.857 117.981C180.37 117.679 180.777 117.246 181.079 116.681C181.394 116.116 181.552 115.46 181.552 114.711Z" fill="#0E529E"/>
<path d="M165.377 109.156C166.231 109.156 166.992 109.334 167.662 109.688C168.345 110.043 168.877 110.568 169.258 111.264C169.651 111.96 169.848 112.8 169.848 113.785V120.187H167.623V114.12C167.623 113.148 167.38 112.406 166.894 111.894C166.408 111.369 165.745 111.106 164.904 111.106C164.064 111.106 163.394 111.369 162.895 111.894C162.409 112.406 162.166 113.148 162.166 114.12V120.187H159.94V114.12C159.94 113.148 159.697 112.406 159.211 111.894C158.726 111.369 158.062 111.106 157.222 111.106C156.381 111.106 155.712 111.369 155.213 111.894C154.727 112.406 154.484 113.148 154.484 114.12V120.187H152.238V109.334H154.484V110.575C154.852 110.128 155.318 109.78 155.882 109.531C156.447 109.281 157.051 109.156 157.695 109.156C158.561 109.156 159.336 109.34 160.019 109.708C160.702 110.075 161.227 110.607 161.595 111.303C161.923 110.647 162.435 110.128 163.131 109.747C163.827 109.353 164.576 109.156 165.377 109.156Z" fill="#0E529E"/>
<path d="M144.378 120.365C143.354 120.365 142.428 120.135 141.601 119.675C140.773 119.202 140.123 118.546 139.651 117.705C139.178 116.852 138.941 115.867 138.941 114.751C138.941 113.647 139.184 112.669 139.67 111.816C140.156 110.962 140.819 110.305 141.66 109.846C142.5 109.386 143.439 109.156 144.477 109.156C145.514 109.156 146.453 109.386 147.293 109.846C148.134 110.305 148.797 110.962 149.283 111.816C149.769 112.669 150.012 113.647 150.012 114.751C150.012 115.854 149.762 116.832 149.263 117.686C148.764 118.539 148.081 119.202 147.215 119.675C146.361 120.135 145.416 120.365 144.378 120.365ZM144.378 118.414C144.956 118.414 145.494 118.277 145.993 118.001C146.506 117.725 146.919 117.311 147.234 116.76C147.55 116.208 147.707 115.538 147.707 114.751C147.707 113.963 147.556 113.299 147.254 112.761C146.952 112.209 146.551 111.796 146.052 111.52C145.553 111.244 145.015 111.106 144.437 111.106C143.859 111.106 143.321 111.244 142.822 111.52C142.336 111.796 141.949 112.209 141.66 112.761C141.371 113.299 141.226 113.963 141.226 114.751C141.226 115.919 141.522 116.825 142.113 117.469C142.717 118.099 143.472 118.414 144.378 118.414Z" fill="#0E529E"/>
<path d="M123.688 113.321C123.688 111.982 123.996 110.78 124.613 109.716C125.244 108.653 126.091 107.825 127.154 107.234C128.231 106.63 129.407 106.328 130.68 106.328C132.138 106.328 133.432 106.689 134.561 107.412C135.703 108.121 136.531 109.132 137.043 110.445H134.344C133.99 109.723 133.497 109.184 132.867 108.83C132.237 108.475 131.508 108.298 130.68 108.298C129.774 108.298 128.967 108.501 128.257 108.909C127.548 109.316 126.99 109.9 126.583 110.662C126.189 111.423 125.992 112.31 125.992 113.321C125.992 114.332 126.189 115.219 126.583 115.98C126.99 116.742 127.548 117.333 128.257 117.753C128.967 118.16 129.774 118.364 130.68 118.364C131.508 118.364 132.237 118.186 132.867 117.832C133.497 117.477 133.99 116.939 134.344 116.217H137.043C136.531 117.53 135.703 118.541 134.561 119.25C133.432 119.959 132.138 120.314 130.68 120.314C129.393 120.314 128.218 120.018 127.154 119.427C126.091 118.823 125.244 117.989 124.613 116.926C123.996 115.862 123.688 114.66 123.688 113.321Z" fill="#0E529E"/>
<path d="M111.943 120.334C111.024 120.334 110.197 120.176 109.461 119.861C108.726 119.532 108.148 119.073 107.728 118.482C107.308 117.891 107.098 117.202 107.098 116.414H109.501C109.553 117.005 109.783 117.49 110.19 117.871C110.611 118.252 111.195 118.443 111.943 118.443C112.718 118.443 113.322 118.259 113.756 117.891C114.189 117.51 114.406 117.024 114.406 116.433C114.406 115.974 114.268 115.599 113.992 115.311C113.729 115.022 113.395 114.798 112.987 114.641C112.593 114.483 112.042 114.312 111.333 114.129C110.44 113.892 109.711 113.656 109.146 113.419C108.595 113.17 108.122 112.789 107.728 112.277C107.334 111.765 107.137 111.082 107.137 110.228C107.137 109.44 107.334 108.751 107.728 108.16C108.122 107.569 108.674 107.116 109.383 106.801C110.092 106.486 110.913 106.328 111.845 106.328C113.171 106.328 114.255 106.663 115.095 107.333C115.949 107.989 116.421 108.895 116.513 110.051H114.031C113.992 109.552 113.756 109.125 113.322 108.771C112.889 108.416 112.318 108.239 111.609 108.239C110.965 108.239 110.44 108.403 110.033 108.731C109.626 109.06 109.422 109.532 109.422 110.15C109.422 110.57 109.547 110.918 109.796 111.194C110.059 111.456 110.387 111.666 110.781 111.824C111.175 111.982 111.714 112.152 112.396 112.336C113.303 112.586 114.038 112.835 114.603 113.085C115.18 113.334 115.666 113.722 116.06 114.247C116.467 114.759 116.671 115.448 116.671 116.315C116.671 117.011 116.481 117.668 116.1 118.285C115.732 118.902 115.187 119.401 114.465 119.782C113.756 120.15 112.915 120.334 111.943 120.334Z" fill="#0E529E"/>
<path d="M104.482 106.5V120.19H102.236V110.814L98.06 120.19H96.5038L92.3081 110.814V120.19H90.0625V106.5H92.4854L97.2917 117.236L102.078 106.5H104.482Z" fill="#0E529E"/>
<path d="M84.5807 117.389H78.8485L77.8636 120.187H75.5195L80.4244 106.477H83.0246L87.9294 120.187H85.5656L84.5807 117.389ZM83.9504 115.557L81.7245 109.195L79.4789 115.557H83.9504Z" fill="#0E529E"/>
<path d="M60.3438 113.321C60.3438 111.982 60.6524 110.78 61.2696 109.716C61.8999 108.653 62.7469 107.825 63.8106 107.234C64.8875 106.63 66.0628 106.328 67.3366 106.328C68.7943 106.328 70.0878 106.689 71.2172 107.412C72.3597 108.121 73.187 109.132 73.6991 110.445H71.0005C70.6459 109.723 70.1535 109.184 69.5231 108.83C68.8928 108.475 68.1639 108.298 67.3366 108.298C66.4305 108.298 65.6229 108.501 64.9137 108.909C64.2046 109.316 63.6465 109.9 63.2394 110.662C62.8454 111.423 62.6484 112.31 62.6484 113.321C62.6484 114.332 62.8454 115.219 63.2394 115.98C63.6465 116.742 64.2046 117.333 64.9137 117.753C65.6229 118.16 66.4305 118.364 67.3366 118.364C68.1639 118.364 68.8928 118.186 69.5231 117.832C70.1535 117.477 70.6459 116.939 71.0005 116.217H73.6991C73.187 117.53 72.3597 118.541 71.2172 119.25C70.0878 119.959 68.7943 120.314 67.3366 120.314C66.0497 120.314 64.8743 120.018 63.8106 119.427C62.7469 118.823 61.8999 117.989 61.2696 116.926C60.6524 115.862 60.3438 114.66 60.3438 113.321Z" fill="#0E529E"/>
<path d="M41.8711 114.711C41.8711 113.621 42.0943 112.656 42.5408 111.816C43.0005 110.975 43.6177 110.325 44.3925 109.865C45.1804 109.393 46.0471 109.156 46.9926 109.156C47.8462 109.156 48.5882 109.327 49.2185 109.668C49.862 109.997 50.3742 110.41 50.755 110.909V109.334H53.0203V120.187H50.755V118.572C50.3742 119.084 49.8554 119.511 49.1988 119.852C48.5422 120.194 47.7937 120.365 46.9532 120.365C46.0208 120.365 45.1673 120.128 44.3925 119.655C43.6177 119.17 43.0005 118.5 42.5408 117.646C42.0943 116.779 41.8711 115.801 41.8711 114.711ZM50.755 114.751C50.755 114.002 50.5974 113.352 50.2822 112.8C49.9802 112.249 49.5797 111.829 49.0806 111.54C48.5816 111.251 48.0432 111.106 47.4654 111.106C46.8876 111.106 46.3492 111.251 45.8501 111.54C45.3511 111.816 44.944 112.229 44.6288 112.781C44.3268 113.319 44.1758 113.963 44.1758 114.711C44.1758 115.46 44.3268 116.116 44.6288 116.681C44.944 117.246 45.3511 117.679 45.8501 117.981C46.3623 118.27 46.9007 118.414 47.4654 118.414C48.0432 118.414 48.5816 118.27 49.0806 117.981C49.5797 117.692 49.9802 117.272 50.2822 116.72C50.5974 116.156 50.755 115.499 50.755 114.751Z" fill="#0E529E"/>
<path d="M34.4437 112.199V113.962H15.0586V112.199H34.4437Z" fill="#0E529E"/>
</svg>
