<svg xmlns="http://www.w3.org/2000/svg" width="551" height="138"><path fill="#fcfdfd" d="M0 0h551v138H0z"/><path fill="#013974" d="M19.5 9.3H22l8.3.1h5.8l15.1.2 15.5.1L97 10l.2 34.2v31.1l.1 5.9v10.6c0 5.6-1 8.8-4.9 12.9a203 203 0 0 1-18.8 14.1c-1.8 1.3-1.8 1.3-4.2 3.4-9 4.7-22.5 3.5-32.4 1.8a46 46 0 0 1-15.3-10.5q-3.6-3.2-7.6-6c-6.8-5.6-6.8-5.6-8.1-9.5l-.2-7.8V77.3L5.6 63l-.1-11.8-.1-14.2V24.2l-.1-2.3c0-3.6.5-6.4 2.6-9.4 3.8-3.2 6.7-3.3 11.5-3.2"/><path fill="#f0f0f0" d="M0 0h551v8l-86 1 8 5c3.7 3.8 4.3 6.8 4.5 11.9-.5 10.6-6.2 17.2-13.7 24.5-5.8 5.1-12.4 9.3-18.8 13.6l24 1-2 10h-44c2-10 2-10 5-12.7q1.7-1.2 3.6-2.2l4-2.5 2.2-1.2q5.5-3.6 10.7-7.6l2-1.4c6.2-4.7 12.8-9.9 15.5-17.4.3-3.8.2-6.4-1-10a30 30 0 0 0-19.9.1A63 63 0 0 0 439 24l-4-6c1.5-4.2 4.2-5.8 8-8l3-1-183.8-.2h-4l-62.5-.1h-64.2L92 8.5H34.7l-5.2-.1h-11A17 17 0 0 0 9 13c-2.4 3.6-2.3 6.3-2.2 10.4v15.3L7 52.9 7 78v2.8q0 28.5-1 57.2H0z"/><path fill="#053c76" d="M229 10h18l9.5 23.6 1.3 3.2 3.8 10 3.9 10 2.4 6.2 6.1 15c11.2-15.9 11.2-15.9 22-32q-4.9-9.3-11.1-17.6C273 12 273 12 273 10a38 38 0 0 1 20 0c5.4 4.8 8.7 11.4 11.8 17.8 1.2 2.2 2.4 3.6 4.2 5.2l.7-2q2.7-5.7 6.3-10.6l1.4-2 2.5-3.8L323 10c2-.3 2-.3 4.6-.3h2.7l2.8.1h2.9l7 .2q-4.3 7.6-9.3 14.7l-2.9 4.2-1.4 2L320 45q4.6 8.8 10.7 16.8l8.3 11.8 1.5 2c3.5 5.2 3.5 5.2 3.5 7.4-16.7 1.7-16.7 1.7-21.8-2a70 70 0 0 1-5.2-9l-4.5-6.6c-3.5-5.1-3.5-5.1-3.5-7.4h-2l-.9 2.2C299 77.9 299 77.9 291 83c-10.6 3.1-23.2 1-34 0l-5-14-28-1-2 9-2 6h-18c.8-3.8 1.6-6.8 3-10.4l1.2-3.2 1.3-3.5 1.4-3.5 3.6-9.5 3.6-9.5L224 23z"/><path fill="#043b75" d="M124 10c16 0 16 0 19.4 2.8 1.1 1.9 1.1 1.9 2 3.9l2.3 4.1L149 23q2.8 5 6.2 9.4c3.9 5.5 3.9 5.5 3.9 7.7h2l.7-1.6q3.9-6.9 8.7-13.5l4.5-7.3c1.8-3 1.8-3 6.1-7.6h15v73h-16l-1-44-6.7 9.6-2.2 3-1.6 2.4-1.9 2.6-4 6L161 65h-2l-3-4.6Q149.3 50 142 40l-1 43h-17z"/><path fill="#2dbab5" d="M33 25c4.6 4 8.5 7.4 12.4 11.9l2.7 3L50 42c4.1-.5 5.7-2.6 8.3-5.7A95 95 0 0 1 70 25v19h17l-4.2 5-3.6 4.1c-5.8 7-5.8 7-10.2 8.9h-3v3l2.3.3c7.6 2 14 10.8 18.7 16.7v1H70v18a18 18 0 0 1-7.3-5.7Q57.6 89.3 52 84c-9.7 7.5-9.7 7.5-17 17h-2V83H16c2-4.1 4.5-6.8 7.8-10l1.5-1.6Q30.1 66.5 36 63l-3.2-1.7C26 57.2 21 51 16 45v-1h17z"/><path fill="#093f78" d="M478 39h42l-3 4 1 1.9 2 4.1h-33l-4 18 6-3a49 49 0 0 1 32 6.8 50 50 0 0 1 19.7 30.7c1.3 10 0 18.2-3.7 27.5l-2-1v-2l-6 1a60 60 0 0 1 2-8c.8-13.8 0-24-9-35-6.9-7-15.7-10-25.3-10.5-7 .1-12.5 2.4-18.7 5.5l-2.3 1.2-1.7.8c-3.9-5.8-2-13-.7-19.3l1.7-8.2z"/><path fill="#083e77" d="M467.6 10.2c4.3 2.5 7.1 5.3 9.4 9.8.9 9.6-.3 15.2-6.1 22.7A119 119 0 0 1 445 64l24 1-2 10h-44c2-10 2-10 5-12.7q1.7-1.2 3.6-2.2l4-2.5 2.2-1.2q5.5-3.6 10.7-7.6l2-1.4c6.2-4.7 12.8-9.9 15.5-17.4.3-3.8.2-6.4-1-10a30 30 0 0 0-19.9.1A63 63 0 0 0 439 24l-4-6c1.5-4.2 4.2-5.8 8-8 8-3.1 16.6-3.6 24.6.2"/><path fill="#2cbab4" d="M38 64v4h9v10h10V68h9v-3c9 1.3 15.5 10.2 21 17v1H70v18a18 18 0 0 1-7.3-5.7Q57.6 89.3 52 84c-9.7 7.5-9.7 7.5-17 17h-2V83H16c2-4.1 4.6-6.9 7.8-10l1.6-1.7C32.8 64 32.8 64 38 64"/><path fill="#f6fcfb" d="M47 49h9v10h10v9h-9v10H47V68h-9v-9h9z"/><path fill="#f3f6f8" d="M238 29c1.8 2.6 2.7 4.6 3.7 7.6l1 2.7 1 2.8 1 2.8c2.3 6.8 2.3 6.8 2.3 9.1h-17c1.6-8.7 4.8-16.8 8-25"/><path fill="#10457c" d="M124 98h4v11h13V98h3v25h-3v-11h-13v11h-4z"/><path fill="#255587" d="M255 105c2.2 1.6 2.2 1.6 4 4 .4 3.5.4 3.5.3 7.3l-.2 3.8-.1 2.9-5.8.2h-3.3c-2.9-.2-2.9-.2-4.8-1.5-1.1-1.7-1.1-1.7-.8-5.3.7-3.4.7-3.4 1.7-4.4h8v-3h-9l1-3c3-1.5 5.6-1.3 9-1"/><path fill="#13477d" d="M160 105c2.4 1.6 2.4 1.6 4 4l1 6h-13l2 4h9v3a17 17 0 0 1-10 1c-3.2-1.7-3.8-2.5-5-6-.5-4.4-.5-6.3 2-10 3.7-2.5 5.6-2.7 10-2"/><path fill="#15487e" d="M282.5 104.3c4.4.9 5.9 2.1 8.5 5.7v5h-13l2 4h9v3a16 16 0 0 1-10 1c-3.3-2.5-4.8-4.6-5.4-8.7.7-5.7 3.3-8.9 8.9-10"/><path fill="#10447c" d="M171 105c7.4-.4 7.4-.4 9.8 1 1.9 3 1.5 6.2 1.4 9.7v2.1l-.2 5.2-5.9.1-3.3.1c-2.8-.2-2.8-.2-4.8-2.2-.2-3.5-.2-3.5 0-7 2-2 2-2 5.5-2.2 3.5.2 3.5.2 5.5 1.2l-1-4h-9zm37-7h3l1 8 2-1c3-.2 3-.2 6 0 2 2 2 2 2.2 5.7v4.4l-.1 2.3-.1 5.6h-3l-1-14h-6l-1 14h-3z"/><path fill="#c2ecea" d="M476 115c8.3-.4 8.3-.4 11 0 2 2 3 3.1 3 6h2v-5h1v9c-4-2-4-2-5-3l-1 4h-11z"/><path fill="#5cccc6" d="M490 101h3l3 7 1-7c1.9.3 1.9.3 4 1l2 3 1-4h3v10c-4-1-4-1-6-4l-1 4h-6v-2h-5v2l-3-1z"/><path fill="#e5f7f6" d="M505 116h8v1h-5v3h5v1h-5v3h5v1h-2c-5.5-.1-5.5-.1-11 .7-2 .3-2 .3-3.8-.8-1.6-2.5-1.6-4-1.2-6.9 2.4-4.3 5.7-2.8 10-2"/><path fill="#a1e1de" d="M451 115c7.4-.1 7.4-.1 11 1v8l4 1-15 1z"/><path fill="#1a4c81" d="M238 105c2 1.5 2 1.5 3 3-3.2 1-5.7 1-9 1-1.2 1-1.2 1-1.1 2.8v4.4c-.1 1.8-.1 1.8 1.1 2.8h8v3c-1 1-1 1-4.8 1.3-3.2 0-4-.1-6.6-2.2-2.8-3.8-3-6.3-2.6-11.1 3.4-4.9 6.1-5.9 12-5"/><path fill="#3fc2bc" d="M433 87h7v2h-5v2h5v2h-5v2h5l4-8 4 1 2 9h-17z"/><path fill="#bceae7" d="M422 115h11l1 2 5-1-.6 2.8c-.6 3.2-.6 3.2.6 6.2l-2.3-.6c-2.8-.6-2.8-.6-5.7.6l1-6-2-1v3h-6v3h5v1h-7z"/><path fill="#366291" d="M187 98h4v25h-4z"/><path fill="#093f78" d="M197 100h3v5h4v3h-4v12h4v3h-5c-2-2-2-2-2.2-5v-3.6l.1-3.6.1-2.8h-3v-3h3z"/><path fill="#53c9c3" d="M508 101c6.4-.4 6.4-.4 9 1.2 1 1.8 1 1.8.9 4.4-.9 2.4-.9 2.4-3.9 4.4h-6z"/><path fill="#48c5bf" d="M479 86.8c3 .2 3 .2 5 2.2.3 3 .3 3 0 6-2 2-2 2-5 2.3-3-.3-3-.3-5-2.3-.2-3-.2-3 0-6 2-2 2-2 5-2.2"/><path fill="#0a4078" d="m264 105 4 1c2.7-.4 2.7-.4 5-1v3l-5 2-1 13h-3z"/><path fill="#35bfb8" d="M452 87h6l2 2-1 6 1 2c-3 0-3 0-4.7-1.5L454 94v3h-2z"/><path fill="#35bfb9" d="M440 101h7c1.1 4.8 1.1 4.8 0 7l1 3c-3-1-4-1.8-6-4v4h-2z"/><path fill="#54c9c3" d="M474 101h8v2h-5v2h5v2h-5v2h5v2h-8z"/><path fill="#0d427a" d="m247.8 111.9 6.2.1v3h-5l-1 4 6 2-1 2c-5.3.4-5.3.4-8-1-1.6-3.2-.7-5.7 0-9 1-1 1-1 2.8-1.1"/><path fill="#37c0b9" d="M490 101h3c3 6.6 3 6.6 3 10h-2v-2h-5v2l-3-1z"/><path fill="#0a3f78" d="m173.5 111.7 3.5.3 2 3h-7v5l5 2v1h-7c-2-2-2-2-2.2-5.5.3-4.8 1-5.4 5.7-5.8"/><path fill="#46c4be" d="M431 101h7v2h-5v2h5v2h-4v2h4v2h-7z"/><path fill="#3fc2bc" d="M462 87h6l-1 3h-3l5 2-1 5h-6l-1-2 5-1-5-2z"/><path fill="#49c5bf" d="m444 87 4 1 2 9-7-1v-3l-1-2z"/><path fill="#ecf0f4" d="M174.4 113.8c2.6.2 2.6.2 4.6 2.2v4l-7 1c-1-1-1-1-1.1-3.5.1-3.3.2-3.4 3.5-3.7"/><path fill="#45c4be" d="M426 101h3v2l-4 1 5 2c-.9 3.9-.9 3.9-2 5h-5l-1-3 5 1v-2l-4-1-1-4c1-1 1-1 4-1"/><path fill="#4ec7c1" d="M451 115h7v2h-5v3h5v1h-5v3h5v2h-7z"/><path fill="#eff2f6" d="M251.5 113.9c2.5.1 2.5.1 3.5 1.1v5c-2.9.6-2.9.6-6 1l-2-2c.7-5 .7-5 4.5-5.1"/><path fill="#dee5ed" d="M153 108h7l2 5h-11z"/><path fill="#4bc6c0" d="M476 115h7v2h-5v3l4 1h-4v3h5v2h-7z"/><path fill="#3dc1bb" d="M449 101c3 1 3 1 4.2 3l.8 2 2-5 3 1-4 9h-3z"/><path fill="#50c8c2" d="m448 115 1 3h-5l-1 4q2.9 1 6 1v2c-5.4 1.3-5.4 1.3-7.9-.1-1.5-2.5-1.5-4-1.1-6.9 2.2-3.3 4.2-3.3 8-3"/><path fill="#d3f1ef" d="m430 118 3 1q-.6 3.2-2 6l2 1h-11l2-2v-3h6z"/><path fill="#e6ebf1" d="M283 107.8c3 .2 3 .2 5 2.2v3h-10c1.2-5 1.2-5 5-5.2"/><path fill="#3ec2bb" d="m469.1 100.9 2.9.1 1 3h-6v4h6l-2 3c-2.5.3-2.5.3-5 0-2-2-2-2-2.2-5 .3-4.2 1-5 5.3-5.1"/><path fill="#41c3bd" d="m431 116 2.3.6c2.8.6 2.8.6 5.7-.6l-.6 2.8c-.6 3.2-.6 3.2.6 6.2l-2.3-.6c-2.8-.6-2.8-.6-5.7.6l.6-2.8c.6-3.2.6-3.2-.6-6.2"/><path fill="#48c5bf" d="M504 116v2h-5l-1 4 1.9.4c2.1.6 2.1.6 4.1 1.6l-2 2c-3.3-.3-4.6-.6-7-3-.4-2.8-.4-4.4 1.1-6.9 2.8-1.7 4.8-.8 7.9-.1"/><path fill="#2ebdb6" d="M486 87h7v2h-5v2h5v2h-5v4h-2z"/><path fill="#35bfb8" d="m485 116 4 2 1 3h2v-5h1v9c-4-2-4-2-6-5l-1 5h-1z"/><path fill="#43c3bd" d="M422 87h3l2 3 2-3h2l-3 10h-2c-2.9-6.6-2.9-6.6-4-10"/><path fill="#3ac1ba" d="M422 116h7v1h-5v3h5v1h-5v3h5v1h-7z"/><path fill="#2dbdb6" d="M506 116h7v1h-5v3h5v1h-5v3h5v1h-7z"/><path fill="#f2fbfa" d="m477 89 5 1-1 5-5-1z"/><path fill="#72d2ce" d="M441 101h6l1 5c-2.5 1.2-3.4.8-6 0z"/><path fill="#ecf0f4" d="M248 108h6l1 5-8-1z"/><path fill="#e4eaf0" d="M173 108h5l1 5-8-1z"/><path fill="#80d7d3" d="M454 89h6l-.6 2.9c-.7 3-.7 3 .6 5.1h-3c-2.8-3-3-3.8-3-8"/><path fill="#1f5084" d="M153 105c3 1 3 1 5 3l-9 3c.3-1.9.3-1.9 1-4z"/><path fill="#f9fdfd" d="M511 103h4v5l-4 1z"/><path fill="#e5f7f6" d="m459 92 7 1 1 2-8 1z"/><path fill="#4fc7c1" d="M466 101h6l1 3h-2.8c-3.2-.2-3.2-.2-6.2 1z"/><path fill="#54c9c3" d="M462 87h6l-1 3-6 2z"/><path fill="#4dc7c1" d="m431 116 2.3.6c2.8.6 2.8.6 5.7-.6l-2 5-1-2h-2l-1 2z"/><path fill="#7ad5d1" d="M488 104h4l1 4-6 1z"/><path fill="#45c4be" d="M490 101h3l2 6-6-3z"/><path fill="#3ac1ba" d="m480 88 4 1v6l-3 1v-2.9c.2-3 .2-3-1-5.1"/><path fill="#53c9c3" d="m456 101 3 1c-.7 2.4-.7 2.4-2 5-2.1.8-2.1.8-4 1z"/><path fill="#62cdc8" d="m477 121 1 3h5v2h-7z"/><path fill="#305d8d" d="m248 105 5 2v1l-7 2v-4z"/><path fill="#87d9d5" d="m443 88 4 4v2l-5-1z"/></svg>